<svg width="32" height="32" viewBox="0 0 32 32" fill="none" xmlns="http://www.w3.org/2000/svg">
<path d="M21.3238 13.2024C20.5281 11.8241 18.9108 10.5203 17.9964 10.2752C17.917 10.254 17.8333 10.254 17.7538 10.2752C16.8393 10.5203 15.222 11.8242 14.4264 13.2024C13.3882 15.0006 14.0198 16.4061 14.8763 17.0632C15.3316 17.4127 15.8653 17.5845 16.3982 17.5845C16.7223 17.5845 17.0459 17.5209 17.3516 17.3951C17.2489 17.7976 17.0045 18.1704 16.6386 18.4735C16.4864 18.5995 16.4297 18.8075 16.4967 18.9934C16.5637 19.1793 16.74 19.3032 16.9377 19.3032H18.8127C19.0103 19.3032 19.1867 19.1792 19.2536 18.9934C19.3206 18.8075 19.2639 18.5995 19.1117 18.4735C18.7458 18.1703 18.5014 17.7976 18.3988 17.3951C19.207 17.7277 20.1419 17.625 20.874 17.0632C21.7304 16.4061 22.362 15.0007 21.3238 13.2024ZM20.3031 16.3194C19.7755 16.7243 18.8943 16.847 18.2065 16.1593C18.1186 16.0714 17.9994 16.022 17.8751 16.022C17.7508 16.022 17.6316 16.0714 17.5436 16.1593C16.8559 16.847 15.9747 16.7244 15.4469 16.3194C14.8648 15.8727 14.5043 14.9424 15.2383 13.6711C15.8906 12.5413 17.1982 11.4837 17.8751 11.221C18.552 11.4837 19.8596 12.5412 20.512 13.6711C21.2459 14.9424 20.8853 15.8728 20.3031 16.3194Z" fill="#FFFF5A"/>
<path d="M24.4375 4H11.3126C10.5372 4 9.90633 4.63084 9.90633 5.40624V6.43758H7.56249C6.78709 6.43758 6.15625 7.06843 6.15625 7.84383V26.5938C6.15625 27.3692 6.78709 28 7.56249 28H20.6874C21.4628 28 22.0937 27.3692 22.0937 26.5938V25.5624H24.4376C25.213 25.5624 25.8438 24.9316 25.8438 24.1562V5.40624C25.8438 4.63084 25.2129 4 24.4375 4ZM24.9063 24.1562C24.9063 24.4146 24.696 24.6249 24.4375 24.6249H11.3126C11.0541 24.6249 10.8438 24.4146 10.8438 24.1562V16.8908C10.8438 16.6319 10.6339 16.422 10.3751 16.422C10.1162 16.422 9.90633 16.6319 9.90633 16.8908V24.1562C9.90633 24.9316 10.5372 25.5624 11.3126 25.5624H21.1562V26.5938C21.1562 26.8522 20.9459 27.0625 20.6874 27.0625H7.56249C7.30403 27.0625 7.09375 26.8522 7.09375 26.5938V7.84383C7.09375 7.58536 7.30403 7.37508 7.56249 7.37508H9.90638V12.672C9.90638 12.9309 10.1163 13.1408 10.3751 13.1408C10.634 13.1408 10.8439 12.9309 10.8439 12.672V5.40624C10.8439 5.14778 11.0542 4.9375 11.3126 4.9375H24.4376C24.696 4.9375 24.9063 5.14778 24.9063 5.40624L24.9063 24.1562Z" fill="#FFFF5A"/>
<path d="M14.1004 8.40363C14.3319 8.28784 14.4258 8.00627 14.31 7.7747L13.6069 6.36845C13.5274 6.20969 13.3652 6.10938 13.1876 6.10938C13.01 6.10938 12.8478 6.20969 12.7683 6.3685L12.0652 7.77475C11.9494 8.00631 12.0433 8.28789 12.2748 8.40367C12.5065 8.51941 12.788 8.42556 12.9038 8.19405L13.0086 7.98438H13.3667L13.4715 8.194C13.5536 8.35825 13.7192 8.45322 13.8911 8.45322C13.9615 8.45322 14.0331 8.43728 14.1004 8.40363Z" fill="#FFFF5A"/>
<path d="M23.4754 21.1588C23.2436 21.0431 22.9622 21.1369 22.8464 21.3684L22.7416 21.5781H22.3836L22.2787 21.3684C22.163 21.1369 21.8813 21.043 21.6498 21.1588C21.4183 21.2746 21.3245 21.5562 21.4402 21.7877L22.1433 23.194C22.2227 23.3528 22.385 23.4531 22.5626 23.4531C22.7401 23.4531 22.9024 23.3528 22.9818 23.194L23.6849 21.7877C23.8008 21.5561 23.7069 21.2745 23.4754 21.1588Z" fill="#FFFF5A"/>
<path d="M10.3752 14.3127C10.1164 14.3127 9.90649 14.5227 9.90649 14.7816C9.90649 15.0405 10.1164 15.2503 10.3752 15.2503C10.6341 15.2503 10.844 15.0405 10.844 14.7816V14.7812C10.844 14.5224 10.6341 14.3127 10.3752 14.3127Z" fill="#FFFF5A"/>
</svg>
