<svg width="32" height="32" viewBox="0 0 32 32" fill="none" xmlns="http://www.w3.org/2000/svg">
<g clip-path="url(#clip0_1_12747)">
<path d="M24.4853 7.51468C22.2188 5.24823 19.2053 4 16 4C14.6267 4 13.2783 4.231 11.9923 4.68658C11.7482 4.77301 11.6205 5.0409 11.7069 5.28493C11.7934 5.52901 12.0614 5.65679 12.3053 5.57026C12.4316 5.52554 12.5585 5.48317 12.686 5.44314L13.3666 7.98319C12.2494 8.35112 11.2346 8.94647 10.3772 9.71424L8.51649 7.85354C8.61465 7.76335 8.71463 7.67471 8.8164 7.58776C9.01318 7.41957 9.03638 7.1237 8.86815 6.92687C8.70001 6.73009 8.40408 6.70688 8.20726 6.87512C5.53351 9.16032 4 12.4862 4 16C4 19.2053 5.24823 22.2188 7.51468 24.4853C9.78113 26.7518 12.7947 28 16 28C19.2053 28 22.2188 26.7518 24.4853 24.4853C26.7518 22.2188 28 19.2053 28 16C28 12.7947 26.7518 9.78122 24.4853 7.51468ZM24.1432 23.4803L22.2857 21.6228C23.0534 20.7654 23.6488 19.7506 24.0167 18.6334L26.5556 19.3137C26.0626 20.8808 25.2295 22.2986 24.1432 23.4803ZM19.3137 26.5556L18.6334 24.0168C19.7505 23.6489 20.7654 23.0535 21.6228 22.2858L23.4803 24.1432C22.2986 25.2295 20.8808 26.0626 19.3137 26.5556ZM8.51972 24.1432L10.3772 22.2858C11.2346 23.0535 12.2494 23.6489 13.3666 24.0168L12.6863 26.5557C11.1192 26.0626 9.70135 25.2295 8.51972 24.1432ZM5.44436 19.3137L7.98324 18.6334C8.35116 19.7505 8.94647 20.7654 9.71428 21.6228L7.85677 23.4803C6.77049 22.2986 5.93739 20.8808 5.44436 19.3137ZM4.9375 16C4.9375 15.1821 5.02764 14.3752 5.20211 13.592L7.74038 14.2721C7.6238 14.83 7.56249 15.408 7.56249 16C7.56249 16.592 7.6238 17.17 7.74038 17.7279L5.2015 18.4082C5.02867 17.6327 4.9375 16.8268 4.9375 16ZM7.85349 8.51644L9.71428 10.3772C8.94652 11.2346 8.35116 12.2495 7.98324 13.3667L5.44459 12.6864C5.92843 11.1445 6.74748 9.71972 7.85349 8.51644ZM8.49999 16C8.49999 11.8645 11.8644 8.49999 16 8.49999C20.1355 8.49999 23.5 11.8645 23.5 16C23.5 20.1356 20.1355 23.5 16 23.5C11.8644 23.5 8.49999 20.1356 8.49999 16ZM23.4803 7.85682L21.6228 9.71428C20.7654 8.94652 19.7506 8.35112 18.6334 7.98324L19.3137 5.44436C20.8808 5.93739 22.2986 6.77049 23.4803 7.85682ZM26.5556 12.6863L24.0167 13.3666C23.6488 12.2495 23.0535 11.2346 22.2857 10.3772L24.1432 8.51972C25.2295 9.70135 26.0626 11.1192 26.5556 12.6863ZM24.2596 17.7279C24.3761 17.17 24.4375 16.592 24.4375 16C24.4375 15.408 24.3761 14.8301 24.2596 14.2721L26.7985 13.5918C26.9713 14.3673 27.0625 15.1732 27.0625 16C27.0625 16.8268 26.9713 17.6327 26.7985 18.4082L24.2596 17.7279ZM13.5916 5.20084C14.3786 5.02581 15.1844 4.9375 16 4.9375C16.8268 4.9375 17.6327 5.02867 18.4082 5.2015L17.7279 7.74038C17.17 7.6238 16.592 7.56249 16 7.56249C15.408 7.56249 14.83 7.6238 14.2721 7.74038L13.5916 5.20084ZM13.5918 26.7985L14.2721 24.2596C14.83 24.3762 15.408 24.4375 16 24.4375C16.592 24.4375 17.17 24.3762 17.7279 24.2596L18.4082 26.7985C17.6327 26.9713 16.8268 27.0625 16 27.0625C15.1732 27.0625 14.3673 26.9713 13.5918 26.7985Z" fill="white"/>
<path d="M10.2347 6.48248C10.3136 6.48248 10.3936 6.46256 10.467 6.42066C10.6918 6.29222 10.7699 6.00586 10.6414 5.78109C10.513 5.55633 10.2267 5.47833 10.0019 5.60662L10.0015 5.60681C9.77673 5.73525 9.69883 6.02152 9.82726 6.24628C9.9138 6.39769 10.072 6.48248 10.2347 6.48248Z" fill="white"/>
<path d="M16.4688 18.9171V18.5004C16.844 18.3438 17.1358 18.0518 17.2906 17.6779C17.6124 16.901 17.2422 16.0071 16.4653 15.6853L15.8936 15.4484C15.5943 15.3245 15.4516 14.9801 15.5757 14.6807C15.6352 14.5368 15.7484 14.4243 15.8941 14.3639C16.0399 14.3035 16.1995 14.3031 16.3434 14.3628L16.6292 14.4811C16.8684 14.5801 17.1426 14.4666 17.2416 14.2274C17.3407 13.9882 17.2271 13.714 16.9879 13.615L16.7021 13.4966C16.6258 13.465 16.5478 13.4399 16.4688 13.4211V13.0829C16.4688 12.8241 16.2589 12.6142 16 12.6142C15.7412 12.6142 15.5313 12.8241 15.5313 13.0829V13.4995C15.1561 13.6561 14.8643 13.9481 14.7095 14.322C14.3877 15.0989 14.7579 15.9929 15.5347 16.3147L16.1065 16.5515C16.4058 16.6755 16.5484 17.0198 16.4244 17.3192C16.3648 17.4631 16.2517 17.5757 16.106 17.6361C15.9602 17.6965 15.8005 17.6968 15.6567 17.6372L15.3709 17.5188C15.1317 17.42 14.8575 17.5334 14.7584 17.7725C14.6594 18.0117 14.773 18.2859 15.0121 18.385L15.2979 18.5033C15.3743 18.535 15.4523 18.5601 15.5313 18.5789V18.9171C15.5313 19.1759 15.7412 19.3858 16 19.3858C16.2589 19.3858 16.4688 19.1759 16.4688 18.9171Z" fill="white"/>
<path d="M22.0938 16C22.0938 12.6399 19.3601 9.90625 16 9.90625C12.6399 9.90625 9.90625 12.6399 9.90625 16C9.90625 19.3602 12.6399 22.0938 16 22.0938C19.3601 22.0938 22.0938 19.3602 22.0938 16ZM10.8438 16C10.8438 13.1569 13.1568 10.8438 16 10.8438C18.8432 10.8438 21.1562 13.1569 21.1562 16C21.1562 18.8432 18.8432 21.1563 16 21.1563C13.1568 21.1563 10.8438 18.8432 10.8438 16Z" fill="white"/>
</g>
<defs>
<clipPath id="clip0_1_12747">
<rect width="24" height="24" fill="white" transform="translate(4 4)"/>
</clipPath>
</defs>
</svg>
