<svg width="32" height="32" viewBox="0 0 32 32" fill="none" xmlns="http://www.w3.org/2000/svg">
<g clip-path="url(#clip0_1_12731)">
<path d="M21.9772 7.19977C22.0897 7.19977 22.2026 7.15951 22.2924 7.07785C22.484 6.90371 22.4981 6.60723 22.324 6.41569L22.3237 6.41546C22.1496 6.22388 21.8533 6.20991 21.6617 6.38405C21.4701 6.55819 21.4561 6.85477 21.6303 7.0463C21.7227 7.14807 21.8497 7.19977 21.9772 7.19977Z" fill="white"/>
<path d="M20.6512 8.52567C20.7712 8.52567 20.8911 8.47992 20.9827 8.38838C21.1657 8.20533 21.1657 7.90852 20.9827 7.72542L20.9824 7.72519C20.7994 7.5421 20.5027 7.54228 20.3196 7.72528C20.1366 7.90833 20.1367 8.20528 20.3197 8.38833C20.4113 8.47992 20.5312 8.52567 20.6512 8.52567Z" fill="white"/>
<path d="M23.0027 8.41704C23.0904 8.49007 23.1968 8.52569 23.3026 8.52569C23.4368 8.52569 23.5702 8.46823 23.663 8.35699C23.8287 8.1581 23.8018 7.86255 23.6029 7.6968L23.6027 7.69657C23.4038 7.53082 23.1083 7.55782 22.9426 7.75671C22.7768 7.9556 22.8039 8.25129 23.0027 8.41704Z" fill="white"/>
<path d="M21.9771 9.85173C22.0896 9.85173 22.2025 9.81147 22.2923 9.72981C22.4839 9.55567 22.498 9.25918 22.3238 9.06765L22.3236 9.06742C22.1495 8.87584 21.8532 8.86192 21.6615 9.03601C21.47 9.21015 21.456 9.50673 21.6301 9.69831C21.7226 9.80003 21.8496 9.85173 21.9771 9.85173Z" fill="white"/>
<path d="M20.9824 11.7028C21.2565 11.977 21.6166 12.114 21.9767 12.114C22.3369 12.114 22.697 11.977 22.9711 11.7028L25.6228 9.0512C25.8877 8.78631 26.0336 8.43316 26.0336 8.0568C26.0336 7.68044 25.8877 7.32733 25.6228 7.06244L22.9711 4.41077C22.7063 4.14587 22.3531 4 21.9768 4C21.6004 4 21.2473 4.14587 20.9824 4.41077L18.3307 7.06244C17.7825 7.61073 17.7825 8.50286 18.3307 9.0512L20.9824 11.7028ZM18.9936 7.72534L21.6453 5.07367C21.7331 4.98588 21.8508 4.9375 21.9767 4.9375C22.1026 4.9375 22.2203 4.98588 22.3081 5.07367L24.9598 7.7253C25.0476 7.81314 25.0959 7.93084 25.0959 8.05675C25.0959 8.1827 25.0476 8.30041 24.9598 8.3882L22.3081 11.0398C22.1255 11.2226 21.828 11.2226 21.6452 11.0398L18.9936 8.3882C18.8109 8.20548 18.8109 7.90811 18.9936 7.72534Z" fill="white"/>
<path d="M13.5132 17.1539H17.2632C18.0386 17.1539 18.6694 16.5231 18.6694 15.7477V11.9977C18.6694 11.2223 18.0386 10.5914 17.2632 10.5914H13.5132C12.7378 10.5914 12.1069 11.2223 12.1069 11.9977V15.7477C12.1069 16.5231 12.7378 17.1539 13.5132 17.1539ZM13.0444 11.9977C13.0444 11.7392 13.2547 11.5289 13.5132 11.5289H17.2632C17.5217 11.5289 17.7319 11.7392 17.7319 11.9977V15.7477C17.7319 16.0061 17.5217 16.2164 17.2632 16.2164H13.5132C13.2547 16.2164 13.0444 16.0061 13.0444 15.7477V11.9977Z" fill="white"/>
<path d="M15.3881 14.5758C15.7764 14.5758 16.0913 14.261 16.0913 13.8727C16.0913 13.4844 15.7764 13.1696 15.3881 13.1696H15.3878C14.9994 13.1696 14.6848 13.4844 14.6848 13.8727C14.6848 14.261 14.9998 14.5758 15.3881 14.5758Z" fill="white"/>
<path d="M27.3293 11.7686C26.8136 11.4852 26.0282 11.5423 25.5223 12.3376C25.5208 12.34 25.5193 12.3423 25.5178 12.3448L23.637 15.4229C23.4104 15.2924 23.1506 15.2343 22.8864 15.2581C22.555 15.2877 22.2569 15.4432 22.0469 15.6959C21.9124 15.8578 21.4679 16.413 20.9973 17.0009C20.5524 17.5568 20.0923 18.1315 19.9638 18.2862C19.5175 18.8234 18.9482 19.2365 18.3454 19.6739C17.4911 20.2937 16.5571 20.9715 16.0018 22.0762C15.6604 21.3905 15.1929 20.9093 14.7701 20.5381C14.5756 20.3672 14.2794 20.3865 14.1086 20.581C13.9377 20.7755 13.957 21.0717 14.1515 21.2425C14.7597 21.7766 15.3984 22.5009 15.5313 23.8243V24.2499H11.5867V23.8994C11.5867 23.7673 11.5311 23.6414 11.4333 23.5525L9.59394 21.8806C8.4427 20.8342 8.19239 20.489 7.53337 19.0394C6.99122 17.8468 6.34753 16.3111 5.83041 15.0772C5.43984 14.1454 5.13113 13.4088 4.9883 13.1119C4.85728 12.8303 5.01075 12.6515 5.12231 12.5902C5.30939 12.4874 5.51939 12.5797 5.68458 12.8374L7.77534 16.2592C7.73704 16.5101 7.7685 16.8218 7.92084 17.2068C8.35842 18.3124 8.90071 19.4168 9.40879 20.2367C9.54515 20.4568 9.83399 20.5246 10.0542 20.3882C10.2742 20.2519 10.3421 19.9629 10.2057 19.7429C9.72562 18.9681 9.21056 17.918 8.79257 16.8618C8.61393 16.4103 8.73262 16.3106 8.77729 16.273C8.84934 16.2125 8.93915 16.1837 9.03018 16.1918C9.11109 16.1991 9.18281 16.2357 9.23207 16.295C9.36093 16.4501 9.82269 17.0269 10.2692 17.5848C10.5046 17.8788 10.7398 18.1727 10.9303 18.4099C11.0925 18.6117 11.3876 18.6438 11.5894 18.4818C11.7912 18.3196 11.8234 18.0246 11.6612 17.8228C11.471 17.586 11.2361 17.2925 11.0011 16.9989C10.5313 16.412 10.0875 15.8576 9.95315 15.6959C9.74319 15.4432 9.44512 15.2877 9.11376 15.2581C8.84943 15.2344 8.58965 15.2924 8.3631 15.423L6.48229 12.3448C6.48084 12.3423 6.47934 12.34 6.47779 12.3376C5.97183 11.5423 5.18639 11.4851 4.67077 11.7686C4.0598 12.1045 3.8318 12.8539 4.14047 13.512C4.14117 13.5134 4.14183 13.5149 4.14258 13.5164C4.2743 13.7897 4.59474 14.5543 4.9658 15.4396C5.48536 16.6793 6.132 18.2221 6.67992 19.4274C7.39364 20.9974 7.71375 21.4386 8.96338 22.5744L10.6493 24.1068V24.2499H10.375C10.1161 24.2499 9.90623 24.4598 9.90623 24.7187V27.5312C9.90623 27.7901 10.1161 27.9999 10.375 27.9999H21.625C21.8838 27.9999 22.0937 27.7901 22.0937 27.5312V24.7187C22.0937 24.4598 21.8838 24.2499 21.625 24.2499H21.3508V24.1068L23.0367 22.5744C24.2863 21.4386 24.6064 20.9974 25.3201 19.4274C25.868 18.2222 26.5146 16.6795 27.0341 15.44C27.4052 14.5545 27.7258 13.7898 27.8575 13.5164C27.8582 13.5149 27.8589 13.5135 27.8596 13.512C28.1683 12.8539 27.9403 12.1045 27.3293 11.7686ZM10.8437 25.1874H15.5312V27.0624H10.8437V25.1874ZM21.1562 27.0624H16.4687V25.1874H21.1562V27.0624ZM27.0116 13.1122C26.8687 13.4094 26.5599 14.146 26.1695 15.0776C25.6524 16.3114 25.0088 17.8469 24.4667 19.0395C23.8076 20.4891 23.5573 20.8342 22.4061 21.8807L20.5668 23.5526C20.469 23.6414 20.4133 23.7673 20.4133 23.8994V24.25H16.4687V23.8246C16.645 22.0662 17.6885 21.3089 18.896 20.4327C19.5191 19.9806 20.1633 19.5131 20.685 18.8853C20.8189 18.7241 21.2611 18.1717 21.7292 17.5868C22.1764 17.0281 22.6389 16.4504 22.768 16.2951C22.8172 16.2358 22.8889 16.1991 22.9699 16.1918C23.0614 16.1835 23.1507 16.2126 23.2228 16.2731C23.2675 16.3107 23.3861 16.4104 23.2074 16.8619C22.7896 17.9181 22.2745 18.9682 21.7944 19.7429C21.658 19.9629 21.7258 20.2519 21.9459 20.3883C22.1658 20.5247 22.4548 20.4568 22.5912 20.2368C23.0994 19.4168 23.6417 18.3125 24.0792 17.2068C24.2316 16.8218 24.2631 16.5101 24.2247 16.2592L26.3153 12.8376C26.4805 12.5799 26.6905 12.4874 26.8777 12.5902C26.9894 12.6515 27.1429 12.8304 27.0116 13.1122Z" fill="white"/>
<path d="M12.7823 19.1436C12.5234 19.1436 12.3137 19.3534 12.3137 19.6123C12.3137 19.8712 12.5238 20.0811 12.7827 20.0811C13.0415 20.0811 13.2514 19.8712 13.2514 19.6123C13.2514 19.3534 13.0415 19.1436 12.7827 19.1436H12.7823Z" fill="white"/>
</g>
<defs>
<clipPath id="clip0_1_12731">
<rect width="24" height="24" fill="white" transform="translate(4 4)"/>
</clipPath>
</defs>
</svg>
