<svg width="32" height="32" viewBox="0 0 32 32" fill="none" xmlns="http://www.w3.org/2000/svg">
<path d="M16.1172 14.125C15.8583 14.125 15.6484 14.3349 15.6484 14.5938V17.4062C15.6484 17.6651 15.8583 17.875 16.1172 17.875C16.376 17.875 16.5859 17.6651 16.5859 17.4062V14.5938C16.5859 14.3349 16.376 14.125 16.1172 14.125Z" fill="white"/>
<path d="M17.9922 17.875C18.2511 17.875 18.461 17.6652 18.461 17.4063V16.142L19.4772 17.6663C19.5658 17.7992 19.7135 17.8751 19.8673 17.8751C19.9125 17.8751 19.9582 17.8685 20.003 17.8549C20.2008 17.7951 20.336 17.6129 20.336 17.4063V14.5938C20.336 14.3349 20.1261 14.125 19.8672 14.125C19.6084 14.125 19.3985 14.3349 19.3985 14.5938V15.8581L18.3822 14.3338C18.2677 14.1619 18.054 14.0853 17.8564 14.1452C17.6587 14.205 17.5234 14.3872 17.5234 14.5938V17.4063C17.5235 17.6652 17.7334 17.875 17.9922 17.875Z" fill="white"/>
<path d="M14.0103 14.5453L13.8412 16.1687L13.6797 15.9533C13.5911 15.8353 13.4522 15.7658 13.3047 15.7658C13.1572 15.7658 13.0182 15.8353 12.9297 15.9533L12.7681 16.1687L12.5991 14.5453C12.5723 14.2878 12.3426 14.1006 12.0843 14.1276C11.8268 14.1544 11.6398 14.3849 11.6666 14.6424L11.9596 17.4549C11.9796 17.6467 12.115 17.8067 12.3008 17.8581C12.4866 17.9095 12.685 17.8419 12.8008 17.6876L13.3047 17.0158L13.8086 17.6876C13.8986 17.8076 14.0384 17.8751 14.1836 17.8751C14.2252 17.8751 14.2672 17.8696 14.3086 17.8581C14.4944 17.8067 14.6299 17.6467 14.6498 17.4549L14.9428 14.6424C14.9696 14.3849 14.7826 14.1544 14.5252 14.1276C14.2673 14.1008 14.037 14.2878 14.0103 14.5453Z" fill="white"/>
<path d="M27.5312 9.4375H4.46875C4.20991 9.4375 4 9.64736 4 9.90625V22.0937C4 22.3526 4.20991 22.5625 4.46875 22.5625H27.5312C27.7901 22.5625 28 22.3526 28 22.0937V9.90625C28 9.64741 27.7901 9.4375 27.5312 9.4375ZM27.0625 21.625H4.9375V10.375H27.0625V21.625Z" fill="white"/>
<path d="M6.57813 18.3438C7.48277 18.3438 8.21875 19.0797 8.21875 19.9844C8.21875 20.2433 8.42866 20.4531 8.6875 20.4531H23.3126C23.5715 20.4531 23.7814 20.2433 23.7814 19.9844C23.7814 19.0797 24.5173 18.3438 25.422 18.3438C25.6808 18.3438 25.8907 18.1339 25.8907 17.875V14.125C25.8907 13.8661 25.6808 13.6562 25.422 13.6562C24.5173 13.6562 23.7814 12.9203 23.7814 12.0156C23.7814 11.7567 23.5715 11.5469 23.3126 11.5469H18.2265C17.9676 11.5469 17.7577 11.7567 17.7577 12.0156C17.7577 12.2745 17.9676 12.4844 18.2265 12.4844H22.8866C23.0795 13.531 23.9066 14.3581 24.9532 14.551V17.449C23.9066 17.642 23.0795 18.469 22.8866 19.5157H9.11355C8.92061 18.469 8.0935 17.642 7.04688 17.449V14.5511C8.0935 14.3581 8.92061 13.531 9.11355 12.4844H14.0077C14.2666 12.4844 14.4765 12.2746 14.4765 12.0157C14.4765 11.7568 14.2666 11.5469 14.0077 11.5469H8.6875C8.42866 11.5469 8.21875 11.7568 8.21875 12.0157C8.21875 12.9203 7.48277 13.6563 6.57813 13.6563C6.31928 13.6563 6.10938 13.8662 6.10938 14.125V17.875C6.10938 18.1339 6.31928 18.3438 6.57813 18.3438Z" fill="white"/>
<path d="M16 7.09375C16.2588 7.09375 16.4688 6.88389 16.4688 6.625V5.6875C16.4688 5.42861 16.2588 5.21875 16 5.21875C15.7412 5.21875 15.5312 5.42861 15.5312 5.6875V6.625C15.5312 6.88389 15.7412 7.09375 16 7.09375Z" fill="white"/>
<path d="M19.549 7.40447C19.5766 7.40934 19.6039 7.41169 19.631 7.41169C19.8542 7.41169 20.0519 7.25166 20.0921 7.02422L20.2548 6.10097C20.2998 5.84602 20.1296 5.60292 19.8746 5.55797C19.6197 5.51306 19.3765 5.68322 19.3316 5.93822L19.1688 6.86142C19.1239 7.11638 19.294 7.35952 19.549 7.40447Z" fill="white"/>
<path d="M22.9901 8.32618C23.043 8.34545 23.0971 8.35459 23.1504 8.35459C23.3419 8.35459 23.5216 8.23637 23.5909 8.04601L23.9115 7.16504C24.0001 6.92176 23.8746 6.65279 23.6313 6.56424C23.3881 6.47565 23.1191 6.60113 23.0305 6.84442L22.7099 7.72538C22.6214 7.96867 22.7469 8.23768 22.9901 8.32618Z" fill="white"/>
<path d="M11.908 7.02412C11.9481 7.25156 12.1459 7.41159 12.3691 7.41159C12.3961 7.41159 12.4235 7.40924 12.451 7.40437C12.706 7.35942 12.8762 7.11628 12.8312 6.86137L12.6685 5.93812C12.6235 5.68321 12.3804 5.5131 12.1254 5.55787C11.8705 5.60282 11.7003 5.84596 11.7452 6.10087L11.908 7.02412Z" fill="white"/>
<path d="M8.40925 8.04616C8.47853 8.23651 8.65825 8.35473 8.84973 8.35473C8.90298 8.35473 8.95708 8.34559 9.01 8.32633C9.25328 8.23778 9.37872 7.96881 9.29017 7.72553L8.9695 6.84456C8.88095 6.60128 8.61189 6.47589 8.36875 6.56439C8.12547 6.65294 8.00003 6.92191 8.08858 7.16519L8.40925 8.04616Z" fill="white"/>
<path d="M16 24.9062C15.7412 24.9062 15.5312 25.1161 15.5312 25.375V26.3125C15.5312 26.5714 15.7412 26.7812 16 26.7812C16.2588 26.7812 16.4688 26.5714 16.4688 26.3125V25.375C16.4688 25.1161 16.2588 24.9062 16 24.9062Z" fill="white"/>
<path d="M12.451 24.5957C12.1962 24.5509 11.9529 24.721 11.908 24.976L11.7452 25.8992C11.7003 26.1542 11.8705 26.3973 12.1254 26.4422C12.153 26.4471 12.1803 26.4494 12.2074 26.4494C12.4306 26.4494 12.6284 26.2894 12.6685 26.062L12.8312 25.1387C12.8762 24.8838 12.706 24.6407 12.451 24.5957Z" fill="white"/>
<path d="M9.01002 23.6736C8.76684 23.5851 8.49773 23.7105 8.40927 23.9538L8.0886 24.8347C8.00001 25.078 8.12545 25.347 8.36877 25.4355C8.4217 25.4548 8.47579 25.4639 8.52904 25.4639C8.72052 25.4639 8.90029 25.3457 8.96952 25.1554L9.2902 24.2744C9.37874 24.0311 9.25331 23.7621 9.01002 23.6736Z" fill="white"/>
<path d="M20.0919 24.976C20.047 24.7211 19.8039 24.5508 19.5489 24.5958C19.2939 24.6407 19.1237 24.8839 19.1687 25.1388L19.3314 26.062C19.3715 26.2894 19.5693 26.4495 19.7926 26.4495C19.8196 26.4495 19.847 26.4471 19.8745 26.4423C20.1294 26.3973 20.2997 26.1542 20.2547 25.8993L20.0919 24.976Z" fill="white"/>
<path d="M23.5909 23.9538C23.5023 23.7106 23.2335 23.585 22.9901 23.6736C22.7469 23.7622 22.6214 24.0311 22.7099 24.2744L23.0305 25.1554C23.0998 25.3457 23.2796 25.464 23.471 25.464C23.5242 25.464 23.5784 25.4548 23.6313 25.4356C23.8745 25.347 24 25.078 23.9115 24.8348L23.5909 23.9538Z" fill="white"/>
<path d="M16.1171 12.4844C16.3759 12.4844 16.5858 12.2745 16.5858 12.0156C16.5858 11.7567 16.3759 11.5469 16.1171 11.5469H16.1168C15.8579 11.5469 15.6482 11.7567 15.6482 12.0156C15.6482 12.2745 15.8582 12.4844 16.1171 12.4844Z" fill="white"/>
</svg>
