<svg width="32" height="32" viewBox="0 0 32 32" fill="none" xmlns="http://www.w3.org/2000/svg">
<path d="M26.6932 17.7429L22.7542 12.2578C22.6662 12.1352 22.5245 12.0625 22.3735 12.0625H9.62657C9.47558 12.0625 9.33388 12.1352 9.2458 12.2578L5.30677 17.7429C5.16868 17.9352 5.19563 18.2003 5.36963 18.3608L15.6821 27.8757C15.7719 27.9585 15.8859 27.9999 15.9999 27.9999C16.114 27.9999 16.228 27.9585 16.3178 27.8757L26.6303 18.3608C26.8043 18.2002 26.8313 17.9352 26.6932 17.7429ZM9.48904 13.5264L10.9484 17.5476H6.60127L9.48904 13.5264ZM13.8905 17.5476H12.5921L16.0009 13.2833L19.4082 17.5476H18.1092C17.8503 17.5476 17.6404 17.7574 17.6404 18.0163C17.6404 18.2752 17.8503 18.4851 18.1092 18.4851H19.6507L15.9999 26.4108L12.3491 18.4851H13.8904C14.1493 18.4851 14.3591 18.2752 14.3591 18.0163C14.3591 17.7574 14.1494 17.5476 13.8905 17.5476ZM16.9746 13H21.7047L20.2273 17.0707L16.9746 13ZM11.7728 17.0709L10.2953 13H15.0271L11.7728 17.0709ZM11.3171 18.4851L14.5915 25.5939L6.88683 18.4851H11.3171ZM20.683 18.4851H25.1132L17.4085 25.5938L20.683 18.4851ZM21.0516 17.5476L22.511 13.5264L25.3987 17.5476H21.0516Z" fill="white"/>
<path d="M14.36 7.33375L14.1658 8.61742C14.1396 8.79053 14.2122 8.96383 14.3538 9.06672C14.4354 9.12602 14.5321 9.15625 14.6294 9.15625C14.701 9.15625 14.7729 9.13989 14.8392 9.10666L16.0001 8.52541L17.161 9.10666C17.3175 9.18508 17.5048 9.16966 17.6464 9.06672C17.7881 8.96378 17.8605 8.79053 17.8344 8.61742L17.6403 7.33375L18.5518 6.40928C18.6748 6.28459 18.718 6.10178 18.6639 5.93528C18.6098 5.76878 18.4674 5.6463 18.2946 5.6177L17.0138 5.40564L16.4162 4.25303C16.3357 4.09759 16.1752 4 16.0001 4C15.8249 4 15.6645 4.09759 15.5839 4.25303L14.9864 5.40564L13.7055 5.6177C13.5328 5.6463 13.3904 5.76878 13.3363 5.93528C13.2822 6.10178 13.3254 6.28459 13.4483 6.40928L14.36 7.33375ZM15.3711 6.29219C15.5168 6.26805 15.6427 6.17664 15.7107 6.04544L16.0001 5.48725L16.2894 6.04544C16.3574 6.17659 16.4833 6.26805 16.629 6.29219L17.2493 6.39489L16.8078 6.84259C16.7041 6.94778 16.656 7.09572 16.6781 7.24183L16.7721 7.86348L16.2099 7.582C16.0778 7.51586 15.9222 7.51586 15.7902 7.582L15.2279 7.86348L15.3219 7.24183C15.344 7.09577 15.296 6.94783 15.1922 6.84259L14.7508 6.39489L15.3711 6.29219Z" fill="white"/>
<path d="M7.13279 8.61372L8.25254 9.27077L8.39729 10.561C8.41684 10.7349 8.53168 10.8835 8.69514 10.9463C8.74965 10.9672 8.80656 10.9775 8.86304 10.9774C8.97587 10.9774 9.08706 10.9367 9.17434 10.8593L10.1452 9.99733L11.417 10.2583C11.5884 10.2935 11.7653 10.2302 11.8755 10.0942C11.9857 9.9581 12.0109 9.77196 11.9408 9.61155L11.4211 8.42186L12.0624 7.29297C12.1488 7.14072 12.1433 6.95299 12.0479 6.80617C11.9525 6.65936 11.7835 6.57794 11.609 6.59496L10.317 6.72156L9.44148 5.76288C9.3234 5.6336 9.14317 5.58086 8.974 5.62619C8.80487 5.67152 8.67512 5.80727 8.63753 5.97827L8.35867 7.24628L7.17634 7.78253C7.01692 7.85486 6.91103 8.01006 6.90189 8.18486C6.89275 8.35966 6.98176 8.52513 7.13279 8.61372ZM8.9597 8.00299C9.09423 7.94196 9.19211 7.82106 9.22384 7.67678L9.35889 7.06267L9.78287 7.52697C9.88248 7.63605 10.0277 7.69188 10.1747 7.67739L10.8005 7.61608L10.49 8.16283C10.417 8.29127 10.4089 8.44661 10.468 8.58199L10.7197 9.15817L10.1038 9.03175C9.95912 9.00208 9.80884 9.0423 9.69836 9.14041L9.22815 9.55783L9.15803 8.93299C9.14157 8.78617 9.05682 8.65572 8.92942 8.58096L8.38707 8.26272L8.9597 8.00299Z" fill="white"/>
<path d="M20.579 8.42167L20.0593 9.61136C19.9892 9.77176 20.0144 9.95795 20.1246 10.094C20.2347 10.23 20.4115 10.2932 20.5831 10.2581L21.8549 9.99714L22.8258 10.8591C22.913 10.9365 23.0242 10.9773 23.1371 10.9773C23.1935 10.9773 23.2505 10.9671 23.305 10.9461C23.4684 10.8834 23.5833 10.7348 23.6028 10.5608L23.7476 9.27058L24.8674 8.61353C25.0183 8.52489 25.1074 8.35956 25.0982 8.18472C25.089 8.00987 24.9832 7.85472 24.8238 7.78239L23.6415 7.24605L23.3627 5.97808C23.3251 5.80708 23.1953 5.67128 23.0262 5.62595C22.8571 5.58062 22.6768 5.63331 22.5587 5.76264L21.6832 6.72133L20.3912 6.59472C20.2168 6.57765 20.0476 6.65912 19.9523 6.80594C19.857 6.95275 19.8514 7.14053 19.9378 7.29273L20.579 8.42167ZM21.8253 7.67729C21.9722 7.69173 22.1175 7.63595 22.2172 7.52687L22.6412 7.06262L22.7762 7.67669C22.808 7.82097 22.9058 7.94186 23.0404 8.00289L23.6129 8.26267L23.0706 8.58086C22.9432 8.65562 22.8585 8.78608 22.8421 8.93289L22.772 9.55773L22.3017 9.14031C22.2152 9.06344 22.1042 9.02209 21.9905 9.02209C21.9592 9.02209 21.9276 9.02523 21.8963 9.03165L21.2804 9.15808L21.5322 8.58189C21.5913 8.44651 21.5832 8.29117 21.5102 8.16273L21.1996 7.61598L21.8253 7.67729Z" fill="white"/>
<path d="M15.9999 18.4851C16.2588 18.4851 16.4686 18.2753 16.4686 18.0164C16.4686 17.7575 16.2588 17.5476 15.9999 17.5476H15.9996C15.7407 17.5476 15.531 17.7575 15.531 18.0164C15.531 18.2753 15.741 18.4851 15.9999 18.4851Z" fill="white"/>
</svg>
